<?xml version="1.0" standalone="no"?>
<!DOCTYPE svg PUBLIC "-//W3C//DTD SVG 20010904//EN"
 "http://www.w3.org/TR/2001/REC-SVG-20010904/DTD/svg10.dtd">
<svg version="1.0" xmlns="http://www.w3.org/2000/svg"
 width="700.000000pt" height="700.000000pt" viewBox="0 0 700.000000 700.000000"
 preserveAspectRatio="xMidYMid meet">
<metadata>
Created by potrace 1.11, written by Peter Selinger 2001-2013
</metadata>
<g transform="translate(0.000000,700.000000) scale(0.100000,-0.100000)"
fill="#000000" stroke="none">
<path d="M648 6349 l-648 -649 0 -2200 0 -2200 650 -650 650 -650 2200 0 2200
0 650 650 650 650 0 2200 0 2200 -650 650 -650 650 -2203 -1 -2202 -1 -647
-649z m5522 -179 l587 -587 0 -2083 0 -2083 -587 -587 -586 -586 -2084 0
-2084 0 -586 586 -587 587 0 2083 0 2083 587 587 587 587 2083 0 2083 0 587
-587z"/>
<path d="M2685 5559 c-22 -12 -61 -37 -87 -55 -25 -19 -66 -43 -91 -54 -32
-14 -47 -28 -51 -46 -4 -14 -30 -54 -57 -90 -113 -143 -181 -285 -193 -404 -3
-25 -8 -64 -12 -86 -7 -46 -14 -39 106 -117 36 -24 90 -62 120 -85 111 -85
241 -108 364 -63 33 11 61 20 62 18 1 -1 5 -22 9 -47 16 -118 88 -254 207
-393 56 -64 65 -92 63 -184 0 -37 4 -63 10 -64 45 -4 738 -3 740 2 2 3 5 42 6
88 2 87 12 107 95 195 5 6 30 40 53 75 64 94 110 201 118 271 3 33 7 60 8 60
1 0 30 -9 64 -20 150 -48 261 -25 391 80 25 20 79 58 120 84 79 49 92 69 79
121 -4 17 -10 56 -13 88 -10 103 -82 245 -197 390 -21 27 -44 64 -50 82 -9 23
-21 36 -38 40 -14 4 -57 28 -96 54 -76 53 -131 83 -142 79 -5 -1 -33 -16 -63
-33 -50 -28 -55 -35 -54 -63 1 -18 -2 -32 -7 -32 -11 0 -12 -40 -1 -41 4 -1
22 -3 41 -5 19 -2 44 -13 55 -23 26 -24 86 -41 123 -35 24 4 33 -2 61 -44 18
-26 41 -77 51 -112 16 -59 17 -68 3 -88 -8 -12 -17 -54 -20 -92 -4 -66 -6 -70
-27 -66 -13 2 -32 9 -43 15 -32 17 -70 13 -123 -14 l-49 -24 -43 22 c-65 34
-174 31 -247 -7 -30 -15 -64 -37 -76 -47 -19 -18 -23 -18 -65 -4 -24 9 -61 27
-81 40 -32 21 -36 28 -32 57 3 18 11 47 19 63 23 51 41 200 27 218 -6 7 -12
33 -15 59 -10 81 -48 133 -121 163 -131 55 -284 -32 -288 -163 0 -20 -5 -43
-11 -50 -20 -25 9 -242 32 -242 4 0 8 -17 9 -38 3 -46 -11 -61 -90 -97 l-56
-26 -61 40 c-103 66 -202 76 -296 31 l-40 -20 -49 25 c-55 28 -89 31 -126 12
-52 -26 -64 -18 -66 49 -1 34 -10 76 -19 94 -16 31 -16 36 5 102 13 38 36 85
52 106 26 33 35 37 78 39 48 2 105 24 112 43 2 6 20 11 41 12 45 2 66 21 47
43 -7 8 -10 23 -7 34 2 10 2 23 -2 29 -5 8 -116 72 -125 72 -1 0 -19 -10 -41
-21z"/>
<path d="M4546 3706 c-30 -16 -48 -35 -65 -70 -23 -46 -24 -54 -24 -299 0
-232 2 -256 20 -298 34 -77 106 -110 208 -95 56 9 109 52 126 104 15 43 20
483 7 546 -19 85 -75 127 -171 131 -44 2 -70 -3 -101 -19z m142 -109 c13 -14
16 -50 17 -244 1 -228 -4 -280 -27 -295 -22 -14 -64 -9 -81 10 -18 19 -19 46
-18 325 1 170 3 189 20 206 23 23 65 21 89 -2z"/>
<path d="M1279 3703 c-6 -26 -3 -742 3 -748 3 -3 57 -6 121 -6 198 0 247 40
247 208 0 101 -13 145 -52 178 -30 26 -31 26 -10 41 35 24 55 95 50 172 -10
137 -50 166 -235 170 -109 3 -121 1 -124 -15z m216 -107 c15 -10 19 -28 21
-79 4 -94 -18 -116 -106 -108 -12 1 -15 13 -13 53 1 29 2 74 2 101 l1 47 38 0
c21 0 47 -6 57 -14z m18 -327 c13 -16 17 -40 17 -99 0 -96 -10 -110 -81 -110
-56 0 -50 -14 -50 133 0 48 3 92 6 97 10 17 89 2 108 -21z"/>
<path d="M1735 3337 l0 -382 115 -5 c63 -3 138 -4 166 -2 l51 4 -1 53 -1 54
-99 0 c-54 0 -101 3 -104 6 -8 7 -9 215 -2 216 3 1 41 2 84 2 l80 2 0 52 c1
29 -3 54 -9 56 -5 2 -44 3 -85 2 l-75 -2 1 91 c1 50 2 99 3 109 1 15 13 17
104 17 l103 0 -1 54 0 55 -165 0 -165 -1 0 -381z"/>
<path d="M2119 3714 c-1 -2 -2 -26 -3 -54 l-1 -50 61 0 c51 0 62 -3 66 -17 2
-10 3 -158 2 -330 l-1 -311 54 -4 c30 -1 58 2 61 7 4 6 7 154 7 330 l0 320 63
3 62 3 0 53 0 54 -185 0 c-102 1 -185 -1 -186 -4z"/>
<path d="M2520 3665 l0 -55 63 0 63 0 0 -330 -1 -330 62 0 61 0 0 308 c0 169
1 317 1 329 1 20 7 22 63 25 l62 3 0 50 0 50 -187 2 -187 3 0 -55z"/>
<path d="M2965 3714 c-10 -4 -13 -749 -3 -759 3 -3 264 -8 316 -6 8 1 12 19
12 56 l0 55 -105 0 -105 0 -1 68 c-1 83 2 146 7 151 2 2 36 5 76 6 40 2 76 3
79 4 3 0 5 24 5 51 -1 56 7 52 -103 52 l-63 0 0 109 0 109 106 0 105 0 -3 53
-3 52 -155 2 c-85 1 -159 0 -165 -3z"/>
<path d="M3374 3336 l-1 -386 61 0 61 0 0 155 0 155 41 0 c28 0 46 -6 59 -20
18 -20 18 -24 24 -257 l1 -33 65 0 c63 0 65 1 60 23 -3 12 -7 76 -9 142 -3
128 -16 174 -57 196 l-21 11 21 14 c39 28 54 73 56 168 1 73 -3 97 -19 130
-37 70 -57 79 -208 83 l-133 5 -1 -386z m220 251 c21 -21 23 -31 20 -102 -2
-66 -6 -82 -23 -96 -24 -19 -88 -23 -93 -5 -4 9 -3 198 1 219 3 18 73 6 95
-16z"/>
<path d="M4010 3336 l0 -386 28 -1 c233 -5 286 9 326 89 24 47 25 192 1 250
-9 23 -20 42 -24 42 -3 0 -15 7 -26 15 -19 15 -19 15 4 31 34 24 51 75 51 154
0 51 -6 82 -20 110 -31 60 -64 73 -212 78 l-128 5 0 -387z m220 254 c15 -15
20 -33 20 -79 0 -75 -19 -102 -75 -104 l-40 -2 -3 103 -3 102 41 0 c27 0 47
-7 60 -20z m13 -321 c16 -20 21 -61 17 -139 -3 -60 -14 -70 -75 -70 l-55 0 0
120 0 119 48 -5 c32 -3 53 -11 65 -25z"/>
<path d="M4919 3719 c-1 -2 -2 -176 -3 -386 l-2 -382 56 -3 c113 -6 214 6 248
30 63 45 67 68 67 357 0 293 -5 315 -73 357 -30 18 -54 22 -163 26 -71 2 -130
3 -130 1z m218 -117 c25 -16 30 -64 29 -283 -1 -173 -5 -230 -15 -243 -9 -11
-30 -16 -65 -16 l-51 0 1 273 c1 149 2 273 3 275 3 6 87 1 98 -6z"/>
<path d="M5340 3697 c5 -12 35 -107 66 -212 31 -104 61 -206 67 -225 6 -19 12
-98 14 -175 l4 -140 59 3 60 4 0 127 0 127 75 252 c41 139 75 253 75 255 0 2
-27 5 -60 6 -50 2 -60 -1 -60 -14 0 -9 -19 -86 -42 -171 -48 -178 -41 -181
-97 36 l-38 145 -66 2 c-65 2 -66 2 -57 -20z"/>
<path d="M631 2674 c-45 -19 -77 -58 -90 -108 -6 -23 -9 -145 -8 -291 l2 -251
27 -42 c36 -54 78 -75 150 -76 71 0 126 24 158 71 25 36 25 38 28 294 3 269
-2 315 -39 363 -42 53 -153 73 -228 40z m133 -116 c13 -19 16 -61 16 -255 0
-242 -5 -277 -42 -286 -30 -8 -67 9 -77 35 -4 13 -7 129 -7 259 2 261 3 269
62 269 23 0 38 -7 48 -22z"/>
<path d="M994 2681 c-2 -2 -4 -176 -4 -387 l0 -382 54 1 54 2 0 200 c1 110 1
232 2 270 l1 70 60 -220 c33 -121 66 -243 74 -271 l15 -51 61 1 62 1 1 368 c1
203 -2 376 -5 386 -5 12 -17 17 -45 16 -22 0 -43 -3 -49 -7 -6 -4 -10 -85 -10
-212 0 -113 -2 -206 -5 -206 -3 0 -27 82 -54 183 -27 100 -53 196 -57 212 -9
30 -9 31 -80 30 -39 0 -73 -2 -75 -4z"/>
<path d="M1482 2682 c-9 -3 -12 -106 -12 -387 l0 -383 158 2 157 1 3 55 3 55
-100 -1 -99 -2 1 329 c1 181 0 330 -3 330 -16 4 -99 4 -108 1z"/>
<path d="M1867 2680 c-10 -4 -12 -93 -12 -385 l0 -380 60 0 60 0 2 365 c1 201
0 374 -2 385 -3 17 -12 20 -50 20 -25 0 -51 -2 -58 -5z"/>
<path d="M2077 2675 c-2 -5 -3 -179 -3 -385 l1 -375 51 -2 c42 -2 53 1 56 15
2 9 3 133 3 274 -1 142 0 257 1 255 1 -1 30 -105 64 -232 34 -126 67 -248 74
-270 l13 -40 61 -2 62 -1 -2 386 -3 386 -52 0 -53 1 -1 -225 c-1 -205 -2 -221
-14 -175 -45 170 -106 390 -110 394 -10 10 -145 6 -148 -4z"/>
<path d="M2562 2675 c-6 -8 -8 -664 -3 -746 1 -15 21 -17 165 -16 l164 0 -1
53 c0 32 -5 54 -11 55 -6 0 -53 1 -103 1 l-93 1 -1 28 c0 16 -1 45 -1 64 0 19
1 57 1 85 l1 49 82 3 82 3 1 40 c2 63 1 63 -82 64 -42 0 -77 2 -80 4 -2 3 -5
50 -6 106 -2 84 1 101 13 102 8 1 51 2 95 3 44 2 86 3 93 4 13 2 18 101 5 103
-56 7 -316 2 -321 -6z"/>
<path d="M3227 2669 c-28 -15 -45 -34 -60 -67 -19 -43 -21 -66 -22 -292 0
-135 3 -262 8 -283 12 -49 62 -102 108 -115 45 -12 122 -6 157 12 62 32 83 79
87 194 l3 82 -59 0 -59 0 0 -72 c0 -82 -4 -93 -41 -107 -34 -12 -71 6 -78 39
-5 21 -6 339 -2 457 1 40 24 63 61 63 45 0 60 -23 60 -90 0 -65 3 -67 70 -65
l45 1 -2 72 c-2 90 -25 138 -79 169 -52 30 -143 31 -197 2z"/>
<path d="M3666 2667 c-76 -42 -81 -61 -84 -322 -2 -126 -1 -253 3 -282 12
-101 74 -155 178 -156 97 0 155 40 177 124 6 22 10 143 10 283 -1 233 -2 247
-24 288 -43 83 -172 115 -260 65z m150 -115 c8 -16 12 -102 12 -257 1 -206 -1
-237 -16 -255 -23 -29 -67 -32 -89 -8 -16 18 -18 44 -18 268 0 277 1 283 64
278 25 -2 39 -10 47 -26z"/>
<path d="M4133 2676 c-5 -8 -32 -160 -48 -271 -3 -22 -12 -78 -20 -125 -8 -47
-17 -103 -20 -125 -12 -72 -16 -100 -21 -125 -2 -14 -7 -46 -10 -72 l-6 -47
55 1 55 2 7 56 c4 31 10 62 14 69 6 8 31 13 76 12 37 0 69 -2 70 -3 2 -2 6
-25 9 -53 11 -85 10 -83 76 -82 33 1 60 1 60 2 0 0 -5 27 -10 60 -6 33 -12 76
-15 95 -3 19 -7 46 -10 60 -3 14 -12 70 -20 125 -8 55 -17 111 -19 125 -3 14
-10 59 -16 100 -7 41 -14 84 -16 95 -2 10 -6 37 -10 60 -3 22 -8 42 -10 45 -9
8 -166 5 -171 -4z m91 -201 c3 -27 14 -108 25 -180 11 -71 19 -131 17 -132 -7
-7 -83 -8 -97 -2 -14 7 -15 16 -8 54 5 25 11 67 15 93 3 26 7 54 9 62 1 8 6
35 9 60 11 68 18 102 21 98 2 -2 6 -25 9 -53z"/>
<path d="M4595 2683 c-32 -8 -84 -63 -96 -102 -8 -24 -12 -121 -12 -286 0
-229 2 -255 20 -296 28 -64 74 -91 157 -92 129 -1 185 68 186 231 l0 63 -57
-3 -58 -3 -1 -66 c-1 -36 -6 -75 -12 -86 -19 -35 -80 -34 -104 1 -4 6 -8 122
-8 258 0 211 2 249 16 262 32 33 102 11 105 -32 1 -9 1 -36 1 -59 0 -47 8 -53
73 -49 l40 2 3 53 c4 75 -21 145 -65 178 -30 23 -47 28 -102 30 -36 1 -75 -1
-86 -4z"/>
<path d="M4940 2675 c-4 -5 -7 -179 -7 -385 l2 -375 58 -2 c48 -2 57 0 58 15
1 9 2 81 3 159 0 78 5 145 9 149 4 5 35 8 67 9 l60 0 0 -167 0 -166 62 1 63 2
0 378 c0 233 -4 381 -9 385 -6 3 -34 6 -63 6 l-53 1 0 -166 0 -165 -65 0 c-36
0 -66 4 -68 10 -2 6 -3 78 -3 159 1 92 -2 151 -9 155 -16 10 -96 8 -105 -3z"/>
<path d="M5423 2681 c-5 -3 -9 -177 -8 -386 l0 -380 60 0 60 0 0 383 c0 248
-3 382 -10 383 -69 5 -95 5 -102 0z"/>
<path d="M5635 2300 l0 -385 48 -1 c26 -1 50 3 54 9 3 5 6 127 6 269 -1 143 1
258 2 256 4 -3 112 -391 121 -433 2 -11 10 -38 17 -61 l12 -40 61 0 61 0 -1
385 -1 385 -40 1 c-22 1 -46 -1 -52 -3 -10 -3 -13 -58 -14 -226 l0 -221 -31
110 c-17 61 -45 162 -62 225 l-32 114 -75 1 -75 0 1 -385z"/>
<path d="M6191 2668 c-34 -16 -48 -32 -64 -67 -19 -43 -21 -65 -21 -306 0
-246 2 -262 22 -301 28 -54 75 -83 143 -88 83 -5 143 25 177 89 21 39 29 345
9 346 -46 3 -149 1 -153 -4 -3 -2 -6 -26 -7 -53 -2 -48 -1 -49 28 -52 l30 -3
-3 -77 c-1 -42 -4 -87 -7 -100 -10 -42 -85 -49 -106 -10 -12 21 -15 472 -4
507 13 41 98 40 111 -2 4 -12 6 -43 5 -69 -2 -53 8 -60 79 -55 l35 3 -1 71
c-2 89 -25 139 -80 170 -52 30 -133 31 -193 1z"/>
</g>
</svg>
